<svg width="358" height="96" viewBox="0 0 358 96" fill="none" xmlns="http://www.w3.org/2000/svg">
<path fill-rule="evenodd" clip-rule="evenodd" d="M352.38 8.75H352.25C350.828 8.75 349.465 9.31471 348.46 10.3199C347.455 11.3251 346.89 12.6884 346.89 14.11C346.89 15.5316 347.455 16.8949 348.46 17.9001C349.465 18.9053 350.828 19.47 352.25 19.47H352.38C353.768 19.4411 355.088 18.8646 356.053 17.8661C357.018 16.8676 357.549 15.5283 357.53 14.14C357.552 12.7452 357.024 11.3979 356.06 10.3893C355.096 9.38073 353.774 8.79186 352.38 8.75V8.75ZM352.38 18.75H352.25C351.045 18.6943 349.908 18.1764 349.074 17.3039C348.241 16.4314 347.777 15.2714 347.777 14.065C347.777 12.8586 348.241 11.6986 349.074 10.8261C349.908 9.95361 351.045 9.43569 352.25 9.38H352.38C353.565 9.46213 354.672 9.99927 355.47 10.879C356.267 11.7587 356.694 12.9129 356.66 14.1C356.693 15.284 356.266 16.4347 355.467 17.3097C354.669 18.1846 353.562 18.7153 352.38 18.79V18.75ZM353.05 14.16C353.401 14.066 353.711 13.8595 353.933 13.5724C354.155 13.2852 354.277 12.9331 354.28 12.57C354.28 11.57 353.42 11.16 352.5 11.16H349.74V11.4C350.04 11.46 350.48 11.46 350.48 11.89V15.89C350.48 16.57 350.48 16.57 349.74 16.63V16.87H352.25V16.63C351.46 16.57 351.46 16.57 351.46 15.89V14.38H352.25C352.25 14.44 352.32 14.5 352.38 14.57C353.23 15.91 353.6 16.89 354.09 16.89H355.09V16.77C354.666 16.3574 354.278 15.909 353.93 15.43L353.05 14.16ZM352.38 14.04H351.46V11.5H352.38C352.87 11.57 353.23 11.93 353.23 12.67C353.23 13.41 353 14 352.38 14.08V14.04Z" fill="white"/>
<path fill-rule="evenodd" clip-rule="evenodd" d="M122.22 91.84C122.15 92.59 121.97 92.9 121.54 93.16C121.034 93.3084 120.506 93.3692 119.98 93.34C118.43 93.34 118.17 93.08 118.1 91.84V87.19C118.1 87.13 118.1 87.07 118.23 87.07C118.36 87.07 120.11 87.07 120.54 87.13C121.16 87.19 121.28 87.5 121.34 87.76C121.386 87.9632 121.407 88.1716 121.4 88.38C121.405 88.4145 121.421 88.4464 121.447 88.4701C121.472 88.4939 121.505 88.508 121.54 88.51C121.65 88.51 121.65 88.32 121.65 88.2C121.644 87.7985 121.671 87.3971 121.73 87C121.73 86.44 121.85 86.13 121.85 86C121.842 85.9529 121.817 85.9103 121.78 85.88C121.78 85.88 121.65 85.94 121.54 86.13C121.43 86.32 121.16 86.31 120.78 86.38H118.17C118.1 86.38 118.1 86.31 118.1 86.19V81.19C118.1 81.06 118.1 81 118.17 81C118.24 81 120.17 81 120.42 81.06C121.28 81.19 121.42 81.38 121.54 81.69C121.625 81.8887 121.662 82.1043 121.65 82.32C121.65 82.46 121.65 82.56 121.78 82.56C121.91 82.56 121.85 82.46 121.91 82.38C121.91 82.13 121.97 81.38 121.97 81.19C122.03 80.67 122.09 80.44 122.09 80.31C122.09 80.18 122.09 80.18 122.03 80.18C121.97 80.18 121.91 80.25 121.78 80.25C121.65 80.25 121.4 80.31 121.1 80.39H117.43C117.35 80.39 116.31 80.31 115.61 80.31C115.43 80.31 115.37 80.39 115.37 80.44C115.372 80.4727 115.387 80.5032 115.411 80.5255C115.435 80.5478 115.467 80.5601 115.5 80.56C115.664 80.5467 115.829 80.5742 115.98 80.64C116.55 80.75 116.67 81 116.74 81.64V88.72C116.74 90.48 116.74 91.85 116.67 92.61C116.61 93.17 116.49 93.55 116.18 93.61C116.046 93.6741 115.898 93.7018 115.75 93.69C115.61 93.69 115.56 93.75 115.56 93.8C115.56 93.85 115.68 93.94 115.87 93.94H117.43C117.85 93.94 118.98 94 121.43 94C122.06 94 122.18 94 122.3 93.56C122.42 93.12 122.5 91.94 122.5 91.81C122.5 91.68 122.5 91.55 122.44 91.55C122.38 91.55 122.27 91.65 122.22 91.84ZM150.56 80.35C150.06 80.35 149.35 80.43 149.24 80.43C149.13 80.43 148.43 80.35 147.61 80.35C147.43 80.35 147.32 80.43 147.32 80.48C147.32 80.53 147.38 80.6 147.5 80.6C148.18 80.6 148.37 80.79 148.37 81.18C148.364 81.5608 148.3 81.9386 148.18 82.3C147.61 84.62 146.18 89.82 145.75 91.52H145.7L142.45 81.29C142.26 80.68 142.14 80.43 142.02 80.43C141.9 80.43 141.89 80.54 141.65 81.23L138.23 91.52C137.98 90.58 136.29 83.93 136.03 82.8C135.86 81.99 135.72 81.36 135.72 81.18C135.724 81.0035 135.796 80.8353 135.92 80.71C136.118 80.6238 136.334 80.586 136.55 80.6C136.67 80.6 136.73 80.6 136.73 80.48C136.73 80.36 136.67 80.35 136.41 80.35C135.61 80.35 134.92 80.43 134.79 80.43C134.66 80.43 133.79 80.35 132.88 80.35C132.67 80.35 132.62 80.43 132.62 80.48C132.62 80.53 132.62 80.6 132.74 80.6C132.995 80.5859 133.25 80.6233 133.49 80.71C133.94 80.92 134.11 81.18 134.36 82.1L137.22 92.83C137.53 94.03 137.66 94.21 137.78 94.21C137.9 94.21 138.1 94.03 138.35 93.28C138.9 91.58 141.14 85 141.71 83.28H141.79L144.88 93.28C145.14 94.03 145.27 94.21 145.37 94.21C145.47 94.21 145.62 94.03 146.07 92.71C146.68 90.64 148.3 84.93 149.07 82.6C149.36 81.68 149.62 80.92 150.12 80.68C150.279 80.6195 150.45 80.5923 150.62 80.6C150.74 80.6 150.81 80.54 150.81 80.48C150.81 80.42 150.68 80.35 150.56 80.35V80.35ZM99.5599 74.71C98.5599 74.71 97.7999 74.77 97.5599 74.77C97.3199 74.77 96.2499 74.71 95.1899 74.71C94.9399 74.71 94.7599 74.71 94.7599 74.84C94.7599 74.97 94.7599 75.03 94.9399 75.03C95.3192 75.0467 95.6968 75.0902 96.0699 75.16C96.7599 75.4 96.9399 75.96 96.9399 77.6L97.1899 90.6C96.4299 89.78 93.9499 86.6 91.6899 83.95C88.2099 79.74 84.7899 75.6 84.4299 75.18C84.2399 74.92 83.7999 74.35 83.6699 74.35C83.5399 74.35 83.3599 74.61 83.3599 75.6V90.26C83.3599 92.59 83.2299 93.34 82.6799 93.54C82.3761 93.6166 82.0631 93.6503 81.7499 93.64C81.7242 93.6367 81.6981 93.6394 81.6735 93.6478C81.649 93.6562 81.6267 93.6701 81.6084 93.6884C81.59 93.7068 81.5761 93.7291 81.5678 93.7536C81.5594 93.7781 81.5567 93.8043 81.5599 93.83C81.5599 93.97 81.6699 94.03 81.9399 94.03C82.9999 94.03 83.9399 93.97 84.1199 93.97C84.2999 93.97 85.2399 94.03 86.5399 94.03C86.8399 94.03 86.9799 93.97 86.9799 93.83C86.9814 93.8046 86.9775 93.7793 86.9684 93.7556C86.9594 93.7319 86.9455 93.7103 86.9275 93.6924C86.9096 93.6745 86.888 93.6605 86.8643 93.6515C86.8406 93.6424 86.8153 93.6385 86.7899 93.64C86.3941 93.6494 85.9985 93.6159 85.6099 93.54C85.0499 93.28 84.7899 92.65 84.7399 90.54L84.4299 78.31C85.1699 79.24 87.7899 82.44 90.4299 85.65C92.8599 88.59 96.1699 92.36 96.4299 92.65C97.6099 93.97 97.9199 94.27 98.1099 94.27C98.2999 94.27 98.2999 94.15 98.2999 92.45L98.3599 77.45C98.3599 75.88 98.4199 75.31 99.1699 75.2C99.3435 75.1123 99.5355 75.0677 99.7299 75.07C99.9099 75.07 99.9799 75 99.9799 74.88C99.9799 74.76 99.7999 74.71 99.5599 74.71V74.71ZM190.64 74.71C190.2 74.71 188.64 74.77 188.46 74.77C188.28 74.77 187.53 74.71 186.97 74.71C186.72 74.71 186.59 74.71 186.59 74.84C186.59 74.97 186.72 75.03 186.91 75.08C187.1 75.13 187.28 75.46 187.28 75.77C187.283 76.2391 187.155 76.6997 186.91 77.1C186.47 77.96 183.54 83.54 183.1 84.62C182.67 83.88 179.23 77.29 178.93 76.53C178.762 76.2208 178.66 75.8804 178.63 75.53C178.64 75.4365 178.673 75.3469 178.725 75.2686C178.778 75.1903 178.848 75.1256 178.93 75.08C179.11 74.96 179.23 74.96 179.23 74.84C179.23 74.72 179.23 74.71 178.93 74.71C178.05 74.71 177.19 74.77 177 74.77C176.81 74.77 175.2 74.71 174.77 74.71C174.57 74.71 174.47 74.77 174.47 74.84C174.47 74.91 174.57 75.03 174.71 75.03C175.071 75.0991 175.412 75.2458 175.71 75.46C176.325 76.0048 176.852 76.6425 177.27 77.35C178.06 78.66 181.12 84.35 181.27 84.69C181.668 85.5257 181.86 86.4447 181.83 87.37V89.58C181.83 90.01 181.83 91.08 181.75 92.15C181.7 92.9 181.53 93.46 181.01 93.54C180.789 93.6028 180.56 93.6364 180.33 93.64C180.305 93.6399 180.281 93.6449 180.259 93.6546C180.236 93.6642 180.216 93.6784 180.199 93.6962C180.182 93.714 180.169 93.735 180.161 93.758C180.152 93.781 180.149 93.8055 180.15 93.83C180.15 93.97 180.28 94.03 180.52 94.03C181.21 94.03 182.64 93.97 182.75 93.97C182.86 93.97 184.31 94.03 185.57 94.03C185.81 94.03 185.94 93.97 185.94 93.83C185.941 93.8046 185.937 93.7793 185.928 93.7556C185.919 93.7319 185.905 93.7103 185.888 93.6924C185.87 93.6745 185.848 93.6605 185.824 93.6515C185.801 93.6424 185.775 93.6385 185.75 93.64C185.415 93.6247 185.081 93.5913 184.75 93.54C184.07 93.46 183.82 92.9 183.82 92.15C183.82 91.08 183.82 90.01 183.82 89.58V87.37C183.778 86.5092 183.879 85.6475 184.12 84.82C184.56 83.75 187.74 77.72 188.48 76.73C188.79 76.2002 189.213 75.7459 189.72 75.4C190.011 75.1842 190.358 75.0559 190.72 75.03C190.91 75.03 191.03 74.96 191.03 74.84C191.03 74.72 190.83 74.71 190.64 74.71V74.71ZM261.51 93.54C261.166 93.5034 260.829 93.4158 260.51 93.28C259.77 92.96 259.46 92.65 258.08 91.28C257.46 90.6 254.08 86.7 253.66 86.15C254.04 85.71 256.85 82.62 257.21 82.15C257.684 81.5449 258.271 81.0386 258.94 80.66C259.243 80.4851 259.59 80.3985 259.94 80.41C260.05 80.41 260.05 80.33 260.05 80.27C260.05 80.21 259.99 80.15 259.81 80.15H257C256.88 80.15 256.83 80.15 256.83 80.27C256.83 80.39 256.83 80.33 256.94 80.41C257.014 80.4368 257.077 80.4858 257.122 80.5503C257.167 80.6148 257.191 80.6915 257.19 80.77C257.19 81.08 256.75 81.53 256.32 82.08C255.7 82.78 252.77 86.08 252.52 86.42H252.46V81.42C252.52 80.8 252.64 80.49 253.07 80.42H253.51C253.544 80.4154 253.576 80.3989 253.6 80.3734C253.624 80.3478 253.638 80.3148 253.64 80.28C253.64 80.16 253.51 80.16 253.32 80.16H250.03C249.84 80.16 249.78 80.16 249.78 80.28C249.782 80.3148 249.796 80.3478 249.82 80.3734C249.843 80.3989 249.875 80.4154 249.91 80.42H250.47C250.97 80.59 251.08 80.84 251.17 81.42V88.52C251.17 90.21 251.17 91.65 251.08 92.41C251.08 92.91 250.97 93.35 250.58 93.41C250.47 93.41 250.27 93.49 250.14 93.49C250.01 93.49 250.03 93.49 250.03 93.59C250.03 93.69 250.09 93.73 250.27 93.73C250.72 93.73 251.65 93.67 251.83 93.67C252.01 93.67 252.89 93.73 253.64 93.73C253.82 93.73 253.95 93.67 253.95 93.59C253.95 93.51 253.89 93.49 253.76 93.49C253.63 93.49 253.39 93.41 253.15 93.41C252.7 93.35 252.58 92.91 252.52 92.41C252.46 91.65 252.46 90.21 252.46 88.52V86.75H252.52C253.32 87.83 256.75 91.97 257.44 92.65C257.958 93.244 258.664 93.6428 259.44 93.78H261.36C261.62 93.78 261.67 93.72 261.67 93.64C261.67 93.56 261.64 93.54 261.51 93.54ZM209.7 80.11C205.23 80.11 203.35 84.25 203.35 87.11C203.35 90.36 205.16 94.19 209.58 94.19H209.7C213.44 94.19 215.99 90.87 215.99 86.86C216 82.68 213.26 80.11 209.7 80.11ZM210 93.59C209.88 93.59 209.82 93.59 209.69 93.59C206.95 93.39 204.9 90.76 204.9 86.68C204.9 82.6 206.9 80.76 209.57 80.76H209.69C212.12 80.84 214.43 83.16 214.43 87.42C214.44 92.65 211.44 93.59 210 93.59ZM240.39 93.59C240.184 93.5902 239.979 93.5633 239.78 93.51C238.998 93.3478 238.304 92.9027 237.83 92.26C236.9 91.13 235.78 89.5 234.47 87.62C235.061 87.0859 235.538 86.4375 235.872 85.7139C236.205 84.9902 236.388 84.2065 236.41 83.41C236.407 82.9471 236.306 82.49 236.113 82.0693C235.92 81.6486 235.639 81.2739 235.29 80.97C234.634 80.5035 233.854 80.2424 233.05 80.22H228.62C228.43 80.22 228.38 80.22 228.38 80.34C228.38 80.46 228.43 80.48 228.48 80.48H229.05C229.56 80.65 229.68 80.9 229.73 81.48V88.58C229.73 90.27 229.73 91.71 229.68 92.47C229.61 92.97 229.56 93.41 229.24 93.47C228.92 93.53 228.87 93.55 228.75 93.55C228.63 93.55 228.62 93.55 228.62 93.65C228.62 93.75 228.69 93.79 228.87 93.79C229.36 93.79 230.37 93.73 230.37 93.73C230.37 93.73 231.49 93.79 232.37 93.79C232.56 93.79 232.61 93.73 232.61 93.65C232.61 93.57 232.61 93.55 232.49 93.55C232.37 93.55 231.99 93.47 231.75 93.47C231.32 93.41 231.18 92.97 231.11 92.47C231.05 91.71 231.05 90.27 231.05 88.58V88.15C231.05 88.02 231.11 87.96 231.18 87.96L233.06 88.02H233.18C233.24 88.02 233.3 88.08 233.37 88.15C233.67 88.58 234.48 89.83 235.11 90.78C235.664 91.8035 236.403 92.7155 237.29 93.47C237.827 93.7428 238.431 93.854 239.03 93.79H240.21C240.47 93.79 240.59 93.79 240.59 93.65C240.59 93.51 240.53 93.54 240.4 93.54L240.39 93.59ZM234.1 87.18C233.794 87.3963 233.425 87.5053 233.05 87.49H232.85C232.274 87.5148 231.699 87.4088 231.17 87.18C231.1 87.18 231.04 87.12 231.04 87V81C231.04 80.88 231.1 80.81 231.17 80.81C231.539 80.7131 231.919 80.666 232.3 80.67C232.558 80.6489 232.817 80.6972 233.05 80.81C234.29 81.14 235.05 82.38 235.05 84.26C235.108 84.7778 235.055 85.3021 234.893 85.7974C234.73 86.2926 234.463 86.7471 234.11 87.13L234.1 87.18Z" fill="white"/>
<path d="M16.73 26.4L14.85 24.72C8.42998 18.83 6.84998 16.41 6.84998 12.38C6.84998 7.39001 9.99998 4.00001 14.71 4.00001C20 4.00001 22 6.40001 22.73 7.81001C23.1559 8.99187 23.4379 10.2207 23.57 11.47C23.63 12.02 23.71 12.7 24.42 12.7C25.13 12.7 25.2 11.7 25.2 10.7C25.2 6.63001 25.35 4.27001 25.42 3.26001C25.42 3.01001 25.42 2.84001 25.42 2.78001C25.42 2.01001 24.92 1.91001 24.42 1.91001C23.6663 1.88723 22.9179 1.77648 22.19 1.58001C20.174 1.0241 18.0912 0.748176 16 0.760009C9.68998 0.760009 4.89998 3.75001 2.84998 9.00001C2.19334 10.8081 1.855 12.7164 1.84998 14.64C1.81988 16.6839 2.15864 18.7164 2.84998 20.64C4.05998 24 6.52998 27.26 10.65 31L13.65 33.77C19.57 39.27 21.18 42.13 21.18 47.05C21.18 51.97 18 56.71 12 56.71C8.10998 56.71 4.99998 55.07 3.44998 52.24C2.95545 51.3012 2.61767 50.2878 2.44998 49.24C2.2948 48.3555 2.2278 47.4578 2.24998 46.56C2.24998 46.1 2.24998 45.42 1.45998 45.42C0.669978 45.42 0.669978 46.42 0.629978 47V47.77C0.529978 49.19 0.339978 51.77 0.339978 54.89C0.299978 57 0.379978 57.41 1.45998 58C1.94591 58.3136 2.46177 58.5783 2.99998 58.79C5.38572 59.7167 7.93132 60.1619 10.49 60.1C14.1693 60.1938 17.7742 59.0532 20.73 56.86C26.22 52.51 26.5 45.54 26.5 44.18C26.5 38.41 24.9 33.65 16.7 26.4" fill="white"/>
<path d="M83.36 16.78C69.23 16.85 64 30.09 64 38.41C64 48.86 70 60.1 83.1 60.1H83.36C94.6 59.97 102.75 50.48 102.75 37.53C102.75 25.11 94.96 16.78 83.36 16.78ZM84.44 57.38C84.0852 57.3929 83.73 57.3695 83.38 57.31C74.93 56.69 69.26 48.48 69.26 36.86C69.26 26 74.54 19.31 83 19.31H83.32C90.12 19.41 97.43 25.64 97.43 39.01C97.43 56.49 86.58 57.38 84.43 57.38" fill="white"/>
<path d="M56.74 21.45C61.39 21.58 62.2 22.8 62.35 24.11L62.41 24.71C62.46 25.38 62.5 25.95 63.14 25.95C63.32 25.95 63.77 25.86 63.77 24.95C63.77 24.72 63.77 24.05 63.77 23.2C63.77 21.84 63.87 19.98 63.87 18.99C63.87 18.63 63.87 17.99 63.27 17.99C62.8045 18.0273 62.3448 18.1179 61.9 18.26C60.7698 18.4468 59.6254 18.5338 58.48 18.52H40.39C39.83 18.52 38.06 18.4 36.63 18.26C36.078 18.216 35.5422 18.0522 35.06 17.78C34.8855 17.6694 34.6861 17.604 34.48 17.59C34.11 17.59 33.94 18.02 33.7 18.74L33.61 19.07C32.92 22.4 32.61 24.27 32.61 24.64C32.61 25.18 32.91 25.43 33.19 25.43C33.73 25.43 33.9 24.86 33.96 24.67C34.1158 24.2544 34.3135 23.8557 34.55 23.48L34.81 23.03C35.45 21.87 36.44 21.53 39.44 21.46L46.3 21.32V44C46.3 49.08 46.3 53.47 46.04 55.73C45.85 57.28 45.66 58.33 44.9 58.47L44.49 58.55C44.1608 58.6206 43.8263 58.6641 43.49 58.68C43.3965 58.6669 43.3014 58.6743 43.2111 58.7017C43.1208 58.7291 43.0375 58.7758 42.9671 58.8386C42.8967 58.9014 42.8408 58.9788 42.8033 59.0654C42.7658 59.152 42.7476 59.2457 42.75 59.34C42.75 60.06 43.5 60.06 43.87 60.06C44.95 60.06 46.87 59.98 47.87 59.93H48.56H49.17C50.25 59.93 52.51 60.06 54.55 60.06C55.55 60.06 55.66 59.55 55.66 59.34C55.6636 59.2471 55.647 59.1546 55.6112 59.0688C55.5755 58.983 55.5215 58.906 55.4529 58.8432C55.3844 58.7804 55.303 58.7332 55.2144 58.705C55.1259 58.6769 55.0322 58.6683 54.94 58.68C54.56 58.68 53.72 58.58 53.12 58.51H52.79C51.64 58.37 51.34 57.51 51.2 55.77C51 53.51 51 49.12 51 44V21.31L56.74 21.45Z" fill="white"/>
<path d="M175.15 58.72C174.161 58.6653 173.19 58.4244 172.29 58.01C170.11 57.01 169.36 56.21 165.68 52.45L165.14 51.88C163.24 49.82 153.81 38.88 152.03 36.78C153.54 34.92 161.34 26.33 162.48 25.11L163.3 24.21C164.98 22.41 165.98 21.31 167.63 20.47C168.44 20.0609 169.324 19.8195 170.23 19.76C170.76 19.76 171.01 19.52 171.01 19.03C171.01 18.38 170.33 18.38 170.01 18.38C169.19 18.38 167.49 18.44 166.35 18.48H165.35C164.74 18.48 164.06 18.48 163.35 18.41C162.64 18.34 162.17 18.35 161.73 18.35C160.97 18.35 160.8 18.71 160.8 19C160.8 19.29 161.24 19.66 161.48 19.78C161.72 19.9 161.86 20.16 161.86 20.61C161.86 21.27 160.86 22.48 159.81 23.75L159.35 24.31C158.83 24.92 157.7 26.21 156.35 27.76C153.46 31.11 149.61 35.56 148.35 37.05V34.44C148.35 25.95 148.35 24.44 148.48 22.68C148.61 20.92 148.93 20.12 149.98 19.88L150.53 19.82C150.739 19.787 150.949 19.7669 151.16 19.76C151.249 19.764 151.339 19.7504 151.423 19.7199C151.507 19.6894 151.584 19.6426 151.65 19.5822C151.716 19.5219 151.769 19.4491 151.807 19.368C151.845 19.287 151.866 19.1993 151.87 19.11C151.87 18.38 151.15 18.38 150.76 18.38C149.81 18.38 148.34 18.43 147.26 18.48H146.04H145.37C144.32 18.48 142.37 18.37 140.73 18.37C140.36 18.37 139.67 18.37 139.67 19.1C139.683 19.2803 139.765 19.4487 139.899 19.5699C140.033 19.6911 140.209 19.7556 140.39 19.75C140.77 19.75 141.52 19.81 141.91 19.86C143.24 20.2 143.66 20.86 143.8 22.67C143.94 24.48 143.87 25.93 143.87 34.43V44C143.87 49.08 143.87 53.47 143.59 55.74C143.44 57.58 143.12 58.34 142.45 58.47H142.27C142 58.52 141.68 58.59 141.38 58.62C141.08 58.65 140.73 58.57 140.38 58.51C139.48 58.32 137.38 57.86 134.67 54.66C132.17 51.66 129.23 47.45 125.84 42.58L124.73 40.97C128.65 36.89 130.48 32.88 130.48 28.38C130.455 26.9447 130.133 25.5301 129.534 24.2255C128.935 22.9208 128.072 21.7545 127 20.8C125.02 19.2876 122.602 18.4594 120.11 18.44C119.35 18.38 118.64 18.38 117.95 18.38C116.95 18.38 115.17 18.43 113.84 18.47H112.25H111.54C110.44 18.47 108.38 18.36 106.81 18.36C106.41 18.36 105.68 18.36 105.68 19.09C105.685 19.1806 105.708 19.2694 105.748 19.3512C105.787 19.433 105.842 19.5061 105.91 19.5665C105.978 19.6269 106.057 19.6733 106.143 19.7031C106.229 19.7328 106.319 19.7454 106.41 19.74C106.78 19.74 107.63 19.81 107.98 19.85C109.38 20.22 109.67 20.91 109.79 22.66C109.91 24.41 109.86 25.92 109.86 34.42V44C109.86 49.08 109.86 53.48 109.67 55.73C109.45 57.4 109.21 58.34 108.54 58.47L108.14 58.54C107.811 58.6139 107.477 58.6607 107.14 58.68C107.048 58.6662 106.954 58.6733 106.865 58.7009C106.776 58.7284 106.694 58.7756 106.626 58.839C106.558 58.9025 106.505 58.9804 106.471 59.0671C106.437 59.1539 106.423 59.2471 106.43 59.34C106.43 60.06 107.19 60.06 107.54 60.06C108.71 60.06 111.04 59.96 111.79 59.92H112H112.61C113.7 59.92 115.96 60.05 117.99 60.05C118.86 60.05 118.99 59.66 118.99 59.33C118.99 59 118.76 58.67 118.28 58.67C117.97 58.67 117.21 58.58 116.6 58.5H116.2C115 58.34 114.69 57.38 114.55 55.77C114.35 53.51 114.35 49.11 114.35 44.03V42.71C114.35 42.6 114.35 42.59 114.35 42.62L120 42.69H120.28C120.353 42.6876 120.426 42.7027 120.492 42.734C120.558 42.7653 120.616 42.8119 120.66 42.87C121.36 43.96 123.81 47.75 125.93 50.94L126.71 52.1C129.07 55.57 130.6 57.86 132.53 59.04C133.9 59.84 135.24 60.1 137.88 60.1H141.59C142.59 60.1 143.91 60.04 144.92 59.99H146.03H146.89C148.01 59.99 149.89 60.11 151.61 60.11C152.61 60.11 152.72 59.6 152.72 59.39C152.722 59.2976 152.704 59.2058 152.668 59.1208C152.632 59.0358 152.578 58.9595 152.509 58.897C152.441 58.8346 152.361 58.7874 152.273 58.7586C152.185 58.7297 152.092 58.72 152 58.73C151.635 58.7158 151.271 58.6791 150.91 58.62L150.11 58.52C149.11 58.38 148.7 57.64 148.55 55.78C148.27 53.52 148.27 49.13 148.27 44.05V39.26C151.05 43.02 160.63 54.64 162.75 56.59L162.93 56.74C164.93 58.57 166.23 59.74 168.81 60.04C169.88 60.1 170.81 60.1 172.15 60.1H174.68C175.08 60.1 176.05 60.1 176.05 59.38C176.05 58.99 175.65 58.72 175.05 58.72M123 39.43C122.157 40.026 121.152 40.3504 120.12 40.36H119.52C117.38 40.36 115.29 40 114.62 39.52C114.52 39.47 114.46 39.43 114.46 39.21V21.38C114.454 21.3123 114.465 21.2442 114.491 21.1815C114.517 21.1188 114.558 21.0634 114.61 21.02C115.636 20.8059 116.682 20.7019 117.73 20.71C118.496 20.7074 119.259 20.8049 120 21C123.64 22 125.74 25.76 125.74 31.24C125.74 34.98 124.74 37.96 122.95 39.4" fill="white"/>
<path d="M341.85 17.37C340.93 17.37 339.27 17.47 338.27 17.52H337.46H337.03C336.1 17.47 333.93 17.35 331.95 17.35C331.23 17.35 330.9 17.77 330.9 18.15C330.898 18.245 330.916 18.3394 330.954 18.4268C330.991 18.5142 331.047 18.5927 331.117 18.657C331.187 18.7213 331.269 18.77 331.36 18.7998C331.45 18.8296 331.546 18.8399 331.64 18.83C332.294 18.8414 332.945 18.9015 333.59 19.01C334.95 19.21 335.28 20.66 335.35 21.51C335.954 28.6263 336.171 35.7701 336 42.91C336 45.83 336 48.84 336 51.78L307.59 18.31C306.68 17.31 306.09 16.85 305.59 16.85C304.75 16.85 304.71 17.98 304.69 18.36L304.57 44.75C304.57 49.58 304.57 53.75 304.32 55.86C304.15 57.21 303.6 58.22 302.9 58.43L302.5 58.5C302.207 58.5637 301.909 58.6005 301.61 58.61C301.519 58.6024 301.427 58.6148 301.341 58.6463C301.255 58.6778 301.177 58.7276 301.112 58.7923C301.048 58.8571 300.998 58.9351 300.966 59.021C300.935 59.107 300.922 59.1988 300.93 59.29C300.93 60.02 301.64 60.02 301.98 60.02C302.98 60.02 304.78 59.95 305.74 59.92H306.37H306.95C307.95 59.92 310.03 60.02 311.88 60.02C312.88 60.02 313 59.56 313 59.29C313 59.1954 312.981 59.1018 312.943 59.0151C312.905 58.9284 312.85 58.8506 312.78 58.7866C312.711 58.7226 312.628 58.6739 312.539 58.6434C312.449 58.613 312.354 58.6016 312.26 58.61C311.97 58.61 311.4 58.55 310.89 58.49L310.32 58.43C309.24 58.24 308.68 57.43 308.55 55.86C307.916 48.5917 307.689 41.2936 307.87 34C307.87 31.53 307.87 29 307.87 26.5C311.44 30.97 327.42 49.4 332.55 55.12C332.79 55.37 333.05 55.67 333.34 56C334.309 57.1243 335.355 58.1802 336.47 59.16C336.906 59.6474 337.495 59.9718 338.14 60.08C339.14 60.08 339.14 58.75 339.19 57.96L339.32 54.57V32.71C339.32 27.88 339.32 23.71 339.57 21.54C339.75 20.13 340.29 19.16 341.02 19.01C341.411 18.9022 341.815 18.8484 342.22 18.85C342.407 18.8554 342.588 18.7871 342.725 18.6598C342.861 18.5325 342.942 18.3565 342.95 18.17C342.95 17.81 342.76 17.37 341.84 17.37" fill="white"/>
<path d="M260.41 58.25C257.19 58.25 255.35 57.03 254.81 54.53C254.26 51.79 253.7 46.48 253.04 40.34L249.67 5.22998C249.6 4.74998 249.39 3.28998 248.5 3.28998C247.85 3.28998 247.21 4.08998 246.42 5.87998L226.5 49.6L206.4 5.87998C205.61 4.08998 204.97 3.28998 204.32 3.28998C203.42 3.28998 203.22 4.74998 203.15 5.28998L199.44 39.9C198.79 46.73 198.24 51.83 197.7 54.52C197.13 57.06 195.82 58.25 193.6 58.25C193.394 58.2432 193.193 58.3132 193.036 58.4462C192.879 58.5793 192.777 58.7659 192.75 58.97C192.744 58.9963 192.744 59.0236 192.75 59.05C192.75 59.91 193.65 59.91 193.98 59.91C195.28 59.91 197.49 59.82 198.81 59.76H199.81H200.41C201.62 59.76 204.41 59.93 207.02 59.93C208.02 59.93 208.3 59.5 208.38 59.14V59.07C208.386 58.9634 208.369 58.8568 208.331 58.7571C208.293 58.6575 208.234 58.5669 208.158 58.4915C208.083 58.416 207.993 58.3573 207.893 58.3191C207.793 58.2809 207.687 58.2642 207.58 58.27C206.716 58.2263 205.855 58.1361 205 58C203.57 57.74 202.91 56.63 203 54.61C203.5 45.24 204.28 37.21 205.09 28.7C205.37 25.78 205.66 22.78 205.95 19.61L223.87 58.41C223.997 58.7215 224.154 59.0197 224.34 59.3C224.447 59.5138 224.605 59.6978 224.801 59.8357C224.996 59.9735 225.223 60.0609 225.46 60.09C225.702 60.0823 225.937 60.0033 226.134 59.8627C226.332 59.7221 226.483 59.5264 226.57 59.3C226.789 59.0379 226.967 58.7447 227.1 58.43L244.9 19.31L248.1 54.59C248.1 54.99 248.1 55.4 248.17 55.79C248.25 56.68 248.33 57.52 247.96 57.93C247.824 58.0481 247.665 58.1367 247.493 58.1901C247.32 58.2435 247.139 58.2605 246.96 58.24C246.788 58.233 246.616 58.2624 246.456 58.3261C246.295 58.3898 246.15 58.4866 246.03 58.61C245.978 58.6755 245.939 58.7509 245.917 58.8317C245.894 58.9124 245.889 58.9969 245.9 59.08C245.9 59.4 246.12 59.9 247.27 59.9C249.71 59.9 251.42 59.79 252.27 59.74H252.74H254.08C255.86 59.8 258.83 59.89 260.08 59.89C260.273 59.9165 260.47 59.9027 260.657 59.8493C260.845 59.7959 261.02 59.7042 261.17 59.58C261.235 59.4994 261.281 59.4061 261.307 59.3061C261.333 59.2061 261.337 59.1018 261.32 59C261.321 58.8908 261.298 58.7828 261.254 58.6829C261.21 58.5831 261.145 58.4939 261.064 58.421C260.982 58.3482 260.886 58.2935 260.782 58.2606C260.678 58.2277 260.568 58.2172 260.46 58.23" fill="white"/>
<path d="M299.47 58.63C298.835 58.6319 298.206 58.5061 297.62 58.26C296.62 57.97 295.26 57.04 293.62 52.41C291.54 46.72 287.34 34.54 284.55 26.48C283.23 22.64 282.27 19.86 282.03 19.2C281.46 17.43 281.22 16.95 280.62 16.95C280.18 16.95 279.91 17.37 279.62 18.04C279.616 18.0665 279.616 18.0935 279.62 18.12C279.551 18.3791 279.464 18.6331 279.36 18.88L279.19 19.33L267.91 53.55C267 56.4 266.04 58.23 264 58.55C263.563 58.6158 263.122 58.6558 262.68 58.67C262.04 58.67 261.82 59.01 261.82 59.34C261.82 59.87 262.25 60.14 263.12 60.14C264.72 60.14 266.47 60.05 267.62 60L268.76 59.95C268.97 59.95 269.47 59.95 270.03 60.02C270.88 60.07 271.92 60.14 272.64 60.14C273.59 60.14 273.69 59.58 273.69 59.34C273.69 58.67 273.06 58.67 272.83 58.67H272.39C271.87 58.67 270.87 58.4 270.87 57.4C270.89 56.17 271.12 54.9525 271.55 53.8L274.48 44.12C274.56 43.91 274.59 43.91 274.65 43.91H285.38C285.38 43.91 285.38 43.91 285.38 43.98L290 57.46C290.2 58.15 290 58.46 289.92 58.52C289.752 58.555 289.6 58.6445 289.488 58.7747C289.376 58.9049 289.31 59.0685 289.3 59.24C289.3 59.86 290 59.9 290.87 59.95H291.15C294.15 60.06 297.32 60.08 298.93 60.08C300.12 60.08 300.3 59.58 300.3 59.28C300.3 58.98 300.18 58.61 299.44 58.61M284.44 41.12H275.34L279.7 26.3C279.698 26.2667 279.698 26.2333 279.7 26.2V26.3L284.44 41.12Z" fill="white"/>
</svg>
