<svg id="Capa_1" data-name="Capa 1" xmlns="http://www.w3.org/2000/svg" viewBox="0 0 358 96"><defs><style>.cls-1{fill-rule:evenodd;}</style></defs><path class="cls-1" d="M352.38,8.75h-.13a5.36,5.36,0,0,0,0,10.72h.13a5.26,5.26,0,0,0,5.15-5.33A5.31,5.31,0,0,0,352.38,8.75Zm0,10h-.13a4.69,4.69,0,0,1,0-9.37h.13a4.6,4.6,0,0,1,4.28,4.72A4.57,4.57,0,0,1,352.38,18.79Zm.67-4.59a1.66,1.66,0,0,0,1.23-1.59c0-1-.86-1.41-1.78-1.41h-2.76v.24c.3.06.74.06.74.49v4c0,.68,0,.68-.74.74v.24h2.51v-.24c-.79-.06-.79-.06-.79-.74V14.38h.79c0,.06.07.12.13.19.85,1.34,1.22,2.32,1.71,2.32h1v-.12a10.34,10.34,0,0,1-1.16-1.34Zm-.67-.12h-.92V11.5h.92c.49.07.85.43.85,1.17S353,14,352.38,14.08Z"/><path class="cls-1" d="M122.22,91.84c-.07.75-.25,1.06-.68,1.32a4.63,4.63,0,0,1-1.56.18c-1.55,0-1.81-.26-1.88-1.5V87.19c0-.06,0-.12.13-.12s1.88,0,2.31.06c.62.06.74.37.8.63a2.43,2.43,0,0,1,.06.62.15.15,0,0,0,.14.13c.11,0,.11-.19.11-.31a7.39,7.39,0,0,1,.08-1.2c0-.56.12-.87.12-1a.2.2,0,0,0-.07-.12s-.13.06-.24.25-.38.18-.76.25h-2.61c-.07,0-.07-.07-.07-.19v-5c0-.13,0-.19.07-.19s2,0,2.25.06c.86.13,1,.32,1.12.63a1.4,1.4,0,0,1,.11.63c0,.14,0,.24.13.24s.07-.1.13-.18c0-.25.06-1,.06-1.19.06-.52.12-.75.12-.88s0-.13-.06-.13-.12.07-.25.07-.38.06-.68.14h-3.67c-.08,0-1.12-.08-1.82-.08-.18,0-.24.08-.24.13a.13.13,0,0,0,.13.12,1,1,0,0,1,.48.08c.57.11.69.36.76,1v7.08c0,1.76,0,3.13-.07,3.89-.06.56-.18.94-.49,1a.84.84,0,0,1-.43.08c-.14,0-.19.06-.19.11s.12.14.31.14h1.56c.42,0,1.55.06,4,.06.63,0,.75,0,.87-.44s.2-1.62.2-1.75,0-.26-.06-.26S122.27,91.65,122.22,91.84Zm28.34-11.49c-.5,0-1.21.08-1.32.08s-.81-.08-1.63-.08c-.18,0-.29.08-.29.13s.06.12.18.12c.68,0,.87.19.87.58a3.72,3.72,0,0,1-.19,1.12c-.57,2.32-2,7.52-2.43,9.22h-.05l-3.25-10.23c-.19-.61-.31-.86-.43-.86s-.13.11-.37.8l-3.42,10.29c-.25-.94-1.94-7.59-2.2-8.72-.17-.81-.31-1.44-.31-1.62a.69.69,0,0,1,.2-.47,1.36,1.36,0,0,1,.63-.11c.12,0,.18,0,.18-.12s-.06-.13-.32-.13c-.8,0-1.49.08-1.62.08s-1-.08-1.91-.08c-.21,0-.26.08-.26.13s0,.12.12.12a1.9,1.9,0,0,1,.75.11c.45.21.62.47.87,1.39l2.86,10.73c.31,1.2.44,1.38.56,1.38s.32-.18.57-.93c.55-1.7,2.79-8.28,3.36-10h.08l3.09,10c.26.75.39.93.49.93s.25-.18.7-1.5c.61-2.07,2.23-7.78,3-10.11.29-.92.55-1.68,1.05-1.92a1.25,1.25,0,0,1,.5-.08c.12,0,.19-.06.19-.12S150.68,80.35,150.56,80.35Zm-51-5.64c-1,0-1.76.06-2,.06s-1.31-.06-2.37-.06c-.25,0-.43,0-.43.13s0,.19.18.19a8.08,8.08,0,0,1,1.13.13c.69.24.87.8.87,2.44l.25,13c-.76-.82-3.24-4-5.5-6.65-3.48-4.21-6.9-8.35-7.26-8.77-.19-.26-.63-.83-.76-.83s-.31.26-.31,1.25V90.26c0,2.33-.13,3.08-.68,3.28a3.35,3.35,0,0,1-.93.1.17.17,0,0,0-.19.19c0,.14.11.2.38.2,1.06,0,2-.06,2.18-.06s1.12.06,2.42.06c.3,0,.44-.06.44-.2a.18.18,0,0,0-.19-.19,5.47,5.47,0,0,1-1.18-.1c-.56-.26-.82-.89-.87-3l-.31-12.23c.74.93,3.36,4.13,6,7.34,2.43,2.94,5.74,6.71,6,7,1.18,1.32,1.49,1.62,1.68,1.62s.19-.12.19-1.82l.06-15c0-1.57.06-2.14.81-2.25a1.21,1.21,0,0,1,.56-.13c.18,0,.25-.07.25-.19S99.8,74.71,99.56,74.71Zm91.08,0c-.44,0-2,.06-2.18.06s-.93-.06-1.49-.06c-.25,0-.38,0-.38.13s.13.19.32.24.37.38.37.69a2.52,2.52,0,0,1-.37,1.33c-.44.86-3.37,6.44-3.81,7.52-.43-.74-3.87-7.33-4.17-8.09a2.56,2.56,0,0,1-.3-1,.59.59,0,0,1,.3-.45c.18-.12.3-.12.3-.24s0-.13-.3-.13c-.88,0-1.74.06-1.93.06s-1.8-.06-2.23-.06c-.2,0-.3.06-.3.13s.1.19.24.19a2.53,2.53,0,0,1,1,.43,7.88,7.88,0,0,1,1.56,1.89c.79,1.31,3.85,7,4,7.34a5.79,5.79,0,0,1,.56,2.68v2.21c0,.43,0,1.5-.08,2.57-.05.75-.22,1.31-.74,1.39a2.64,2.64,0,0,1-.68.1.18.18,0,0,0-.18.19c0,.14.13.2.37.2.69,0,2.12-.06,2.23-.06s1.56.06,2.82.06c.24,0,.37-.06.37-.2a.18.18,0,0,0-.19-.19,9.3,9.3,0,0,1-1-.1c-.68-.08-.93-.64-.93-1.39,0-1.07,0-2.14,0-2.57V87.37a7.78,7.78,0,0,1,.3-2.55c.44-1.07,3.62-7.1,4.36-8.09a4.14,4.14,0,0,1,1.24-1.33,1.91,1.91,0,0,1,1-.37c.19,0,.31-.07.31-.19S190.83,74.71,190.64,74.71Zm70.87,18.83a3.49,3.49,0,0,1-1-.26c-.74-.32-1.05-.63-2.43-2-.62-.68-4-4.58-4.42-5.13.38-.44,3.19-3.53,3.55-4a5.87,5.87,0,0,1,1.73-1.49,1.88,1.88,0,0,1,1-.25c.11,0,.11-.08.11-.14s-.06-.12-.24-.12H257c-.12,0-.17,0-.17.12s0,.06.11.14a.38.38,0,0,1,.25.36c0,.31-.44.76-.87,1.31-.62.7-3.55,4-3.8,4.34h-.06v-5c.06-.62.18-.93.61-1h.44a.15.15,0,0,0,.13-.14c0-.12-.13-.12-.32-.12h-3.29c-.19,0-.25,0-.25.12a.15.15,0,0,0,.13.14h.56c.5.17.61.42.7,1v7.1c0,1.69,0,3.13-.09,3.89,0,.5-.11.94-.5,1-.11,0-.31.08-.44.08s-.11,0-.11.1.06.14.24.14c.45,0,1.38-.06,1.56-.06s1.06.06,1.81.06c.18,0,.31-.06.31-.14s-.06-.1-.19-.1-.37-.08-.61-.08c-.45-.06-.57-.5-.63-1-.06-.76-.06-2.2-.06-3.89V86.75h.06c.8,1.08,4.23,5.22,4.92,5.9a3.45,3.45,0,0,0,2,1.13h1.92c.26,0,.31-.06.31-.14S261.64,93.54,261.51,93.54ZM209.7,80.11c-4.47,0-6.35,4.14-6.35,7,0,3.25,1.81,7.08,6.23,7.08h.12c3.74,0,6.29-3.32,6.29-7.33C216,82.68,213.26,80.11,209.7,80.11ZM210,93.59c-.12,0-.18,0-.31,0-2.74-.2-4.79-2.83-4.79-6.91s2-5.92,4.67-5.92h.12c2.43.08,4.74,2.4,4.74,6.66C214.44,92.65,211.44,93.59,210,93.59Zm30.39,0a2.35,2.35,0,0,1-.61-.08,3.24,3.24,0,0,1-1.95-1.25c-.93-1.13-2.05-2.76-3.36-4.64a5.89,5.89,0,0,0,1.94-4.21,3.26,3.26,0,0,0-1.12-2.44,4.06,4.06,0,0,0-2.24-.75h-4.43c-.19,0-.24,0-.24.12s.05.14.1.14h.57c.51.17.63.42.68,1v7.1c0,1.69,0,3.13-.05,3.89-.07.5-.12.94-.44,1s-.37.08-.49.08-.13,0-.13.1.07.14.25.14c.49,0,1.5-.06,1.5-.06s1.12.06,2,.06c.19,0,.24-.06.24-.14s0-.1-.12-.1-.5-.08-.74-.08c-.43-.06-.57-.5-.64-1-.06-.76-.06-2.2-.06-3.89v-.43c0-.13.06-.19.13-.19l1.88.06h.12c.06,0,.12.06.19.13.3.43,1.11,1.68,1.74,2.63a9.43,9.43,0,0,0,2.18,2.69,3.11,3.11,0,0,0,1.74.32h1.18c.26,0,.38,0,.38-.14S240.53,93.54,240.4,93.54Zm-6.29-6.41a1.7,1.7,0,0,1-1.05.31h-.2a3.82,3.82,0,0,1-1.68-.31c-.07,0-.13-.06-.13-.18V81c0-.12.06-.19.13-.19a4.27,4.27,0,0,1,1.13-.14,1.45,1.45,0,0,1,.75.14c1.24.33,2,1.57,2,3.45A3.63,3.63,0,0,1,234.11,87.13Z"/><path d="M16.73,26.4l-1.88-1.68c-6.42-5.89-8-8.31-8-12.34C6.85,7.39,10,4,14.71,4,20,4,22,6.4,22.73,7.81a15.65,15.65,0,0,1,.84,3.66c.06.55.14,1.23.85,1.23s.78-1,.78-2c0-4.07.15-6.43.22-7.44,0-.25,0-.42,0-.48,0-.77-.5-.87-1-.87a9.68,9.68,0,0,1-2.23-.33A22.8,22.8,0,0,0,16,.76C9.69.76,4.9,3.75,2.85,9a16.65,16.65,0,0,0-1,5.64,17,17,0,0,0,1,6C4.06,24,6.53,27.26,10.65,31l3,2.77c5.92,5.5,7.53,8.36,7.53,13.28S18,56.71,12,56.71c-3.89,0-7-1.64-8.55-4.47a9.74,9.74,0,0,1-1-3,13.57,13.57,0,0,1-.2-2.68c0-.46,0-1.14-.79-1.14S.67,46.42.63,47l0,.77c-.1,1.42-.29,4-.29,7.12C.3,57,.38,57.41,1.46,58A8.74,8.74,0,0,0,3,58.79a19.39,19.39,0,0,0,7.49,1.31,16.48,16.48,0,0,0,10.24-3.24c5.49-4.35,5.77-11.32,5.77-12.68,0-5.77-1.6-10.53-9.8-17.78"/><path d="M83.36,16.78C69.23,16.85,64,30.09,64,38.41,64,48.86,70,60.1,83.1,60.1h.26c11.24-.13,19.39-9.62,19.39-22.57,0-12.42-7.79-20.75-19.39-20.75m1.08,40.6a5.2,5.2,0,0,1-1.06-.07c-8.45-.62-14.12-8.83-14.12-20.45C69.26,26,74.54,19.31,83,19.31h.32c6.8.1,14.11,6.33,14.11,19.7,0,17.48-10.85,18.37-13,18.37"/><path d="M56.74,21.45c4.65.13,5.46,1.35,5.61,2.66l.06.6c.05.67.09,1.24.73,1.24.18,0,.63-.09.63-1,0-.23,0-.9,0-1.75,0-1.36.1-3.22.1-4.21,0-.36,0-1-.6-1a6.1,6.1,0,0,0-1.37.27,19.54,19.54,0,0,1-3.42.26H40.39c-.56,0-2.33-.12-3.76-.26a3.81,3.81,0,0,1-1.57-.48,1.24,1.24,0,0,0-.58-.19c-.37,0-.54.43-.78,1.15l-.09.33c-.69,3.33-1,5.2-1,5.57,0,.54.3.79.58.79.54,0,.71-.57.77-.76a6.55,6.55,0,0,1,.59-1.19l.26-.45c.64-1.16,1.63-1.5,4.63-1.57l6.86-.14V44c0,5.08,0,9.47-.26,11.73-.19,1.55-.38,2.6-1.14,2.74l-.41.08a6.16,6.16,0,0,1-1,.13.65.65,0,0,0-.74.66c0,.72.75.72,1.12.72,1.08,0,3-.08,4-.13l.69,0,.61,0c1.08,0,3.34.13,5.38.13,1,0,1.11-.51,1.11-.72a.64.64,0,0,0-.72-.66c-.38,0-1.22-.1-1.82-.17l-.33,0c-1.15-.14-1.45-1-1.59-2.74C51,53.51,51,49.12,51,44V21.31Z"/><path d="M175.15,58.72a7.88,7.88,0,0,1-2.86-.71c-2.18-1-2.93-1.8-6.61-5.56l-.54-.57c-1.9-2.06-11.33-13-13.11-15.1,1.51-1.86,9.31-10.45,10.45-11.67l.82-.9c1.68-1.8,2.68-2.9,4.33-3.74a6.75,6.75,0,0,1,2.6-.71c.53,0,.78-.24.78-.73,0-.65-.68-.65-1-.65-.82,0-2.52.06-3.66.1l-1,0c-.61,0-1.29,0-2-.07s-1.18-.06-1.62-.06c-.76,0-.93.36-.93.65s.44.66.68.78.38.38.38.83c0,.66-1,1.87-2.05,3.14l-.46.56c-.52.61-1.65,1.9-3,3.45-2.89,3.35-6.74,7.8-8,9.29V34.44c0-8.49,0-10,.13-11.76s.45-2.56,1.5-2.8l.55-.06a5.11,5.11,0,0,1,.63-.06.68.68,0,0,0,.71-.65c0-.73-.72-.73-1.11-.73-.95,0-2.42.05-3.5.1l-1.22,0-.67,0c-1.05,0-3-.11-4.64-.11-.37,0-1.06,0-1.06.73a.7.7,0,0,0,.72.65c.38,0,1.13.06,1.52.11,1.33.34,1.75,1,1.89,2.81s.07,3.26.07,11.76V44c0,5.08,0,9.47-.28,11.74-.15,1.84-.47,2.6-1.14,2.73l-.18,0c-.27.05-.59.12-.89.15s-.65-.05-1-.11c-.9-.19-3-.65-5.71-3.85-2.5-3-5.44-7.21-8.83-12.08l-1.11-1.61c3.92-4.08,5.75-8.09,5.75-12.59A10.39,10.39,0,0,0,127,20.8a11.5,11.5,0,0,0-6.89-2.36c-.76-.06-1.47-.06-2.16-.06-1,0-2.78.05-4.11.09l-1.59,0-.71,0c-1.1,0-3.16-.11-4.73-.11-.4,0-1.13,0-1.13.73a.69.69,0,0,0,.73.65c.37,0,1.22.07,1.57.11,1.4.37,1.69,1.06,1.81,2.81s.07,3.26.07,11.76V44c0,5.08,0,9.48-.19,11.73-.22,1.67-.46,2.61-1.13,2.74l-.4.07a6.17,6.17,0,0,1-1,.14.62.62,0,0,0-.71.66c0,.72.76.72,1.11.72,1.17,0,3.5-.1,4.25-.14H112l.61,0c1.09,0,3.35.13,5.38.13.87,0,1-.39,1-.72s-.23-.66-.71-.66c-.31,0-1.07-.09-1.68-.17l-.4,0c-1.2-.16-1.51-1.12-1.65-2.73-.2-2.26-.2-6.66-.2-11.74V42.71c0-.11,0-.12,0-.09l5.65.07h.28a.46.46,0,0,1,.38.18c.7,1.09,3.15,4.88,5.27,8.07l.78,1.16c2.36,3.47,3.89,5.76,5.82,6.94,1.37.8,2.71,1.06,5.35,1.06h3.71c1,0,2.32-.06,3.33-.11l1.11,0,.86,0c1.12,0,3,.12,4.72.12,1,0,1.11-.51,1.11-.72a.65.65,0,0,0-.72-.66,8.87,8.87,0,0,1-1.09-.11l-.8-.1c-1-.14-1.41-.88-1.56-2.74-.28-2.26-.28-6.65-.28-11.73V39.26c2.78,3.76,12.36,15.38,14.48,17.33l.18.15c2,1.83,3.3,3,5.88,3.3,1.07.06,2,.06,3.34.06h2.53c.4,0,1.37,0,1.37-.72,0-.39-.4-.66-1-.66M123,39.43a5.07,5.07,0,0,1-2.88.93h-.6c-2.14,0-4.23-.36-4.9-.84-.1-.05-.16-.09-.16-.31V21.38a.42.42,0,0,1,.15-.36,14.72,14.72,0,0,1,3.12-.31A8.8,8.8,0,0,1,120,21c3.64,1,5.74,4.76,5.74,10.24,0,3.74-1,6.72-2.79,8.16"/><path d="M341.85,17.37c-.92,0-2.58.1-3.58.15l-.81,0-.43,0c-.93-.05-3.1-.17-5.08-.17-.72,0-1.05.42-1.05.8a.67.67,0,0,0,.74.68,13.13,13.13,0,0,1,1.95.18c1.36.2,1.69,1.65,1.76,2.5A197.12,197.12,0,0,1,336,42.91c0,2.92,0,5.93,0,8.87L307.59,18.31c-.91-1-1.5-1.46-2-1.46-.84,0-.88,1.13-.9,1.51l-.12,26.39c0,4.83,0,9-.25,11.11-.17,1.35-.72,2.36-1.42,2.57l-.4.07a4.91,4.91,0,0,1-.89.11.63.63,0,0,0-.68.68c0,.73.71.73,1.05.73,1,0,2.8-.07,3.76-.1l.63,0,.58,0c1,0,3.08.1,4.93.1,1,0,1.12-.46,1.12-.73a.68.68,0,0,0-.74-.68c-.29,0-.86-.06-1.37-.12l-.57-.06c-1.08-.19-1.64-1-1.77-2.57A195.51,195.51,0,0,1,307.87,34c0-2.47,0-5,0-7.5,3.57,4.47,19.55,22.9,24.68,28.62.24.25.5.55.79.88a32.14,32.14,0,0,0,3.13,3.16,2.88,2.88,0,0,0,1.67.92c1,0,1-1.33,1.05-2.12l.13-3.39V32.71c0-4.83,0-9,.25-11.17.18-1.41.72-2.38,1.45-2.53a4.45,4.45,0,0,1,1.2-.16.71.71,0,0,0,.73-.68c0-.36-.19-.8-1.11-.8m-40.53,42Z"/><path d="M260.41,58.25c-3.22,0-5.06-1.22-5.6-3.72-.55-2.74-1.11-8.05-1.77-14.19L249.67,5.23c-.07-.48-.28-1.94-1.17-1.94-.65,0-1.29.8-2.08,2.59L226.5,49.6,206.4,5.88c-.79-1.79-1.43-2.59-2.08-2.59-.9,0-1.1,1.46-1.17,2L199.44,39.9c-.65,6.83-1.2,11.93-1.74,14.62-.57,2.54-1.88,3.73-4.1,3.73a.83.83,0,0,0-.85.72.19.19,0,0,0,0,.08c0,.86.9.86,1.23.86,1.3,0,3.51-.09,4.83-.15l1,0,.6,0c1.21,0,4,.17,6.61.17,1,0,1.28-.43,1.36-.79v-.07a.76.76,0,0,0-.8-.8A24.15,24.15,0,0,1,205,58c-1.43-.26-2.09-1.37-2-3.39.5-9.37,1.28-17.4,2.09-25.91.28-2.92.57-5.92.86-9.09l17.92,38.8a5.06,5.06,0,0,0,.47.89,1.45,1.45,0,0,0,1.12.79,1.23,1.23,0,0,0,1.11-.79,3.44,3.44,0,0,0,.53-.87l17.8-39.12,3.2,35.28c0,.4,0,.81.07,1.2.08.89.16,1.73-.21,2.14a1.3,1.3,0,0,1-1,.31,1.23,1.23,0,0,0-.93.37.62.62,0,0,0-.13.47c0,.32.22.82,1.37.82,2.44,0,4.15-.11,5-.16l.47,0,1.34,0c1.78.06,4.75.15,6,.15a1.41,1.41,0,0,0,1.09-.31.73.73,0,0,0,.15-.58.77.77,0,0,0-.86-.77"/><path d="M299.47,58.63a4.74,4.74,0,0,1-1.85-.37c-1-.29-2.36-1.22-4-5.85-2.08-5.69-6.28-17.87-9.07-25.93-1.32-3.84-2.28-6.62-2.52-7.28-.57-1.77-.81-2.25-1.41-2.25-.44,0-.71.42-1,1.09a.24.24,0,0,0,0,.08,5.74,5.74,0,0,1-.26.76l-.17.45L267.91,53.55c-.91,2.85-1.87,4.68-3.91,5a11.32,11.32,0,0,1-1.32.12c-.64,0-.86.34-.86.67,0,.53.43.8,1.3.8,1.6,0,3.35-.09,4.5-.14l1.14-.05c.21,0,.71,0,1.27.07.85.05,1.89.12,2.61.12.95,0,1.05-.56,1.05-.8,0-.67-.63-.67-.86-.67h-.44c-.52,0-1.52-.27-1.52-1.27a10.79,10.79,0,0,1,.68-3.6l2.93-9.68c.08-.21.11-.21.17-.21h10.73s0,0,0,.07L290,57.46c.2.69,0,1-.08,1.06a.78.78,0,0,0-.62.72c0,.62.7.66,1.57.71l.28,0c3,.11,6.17.13,7.78.13,1.19,0,1.37-.5,1.37-.8s-.12-.67-.86-.67m-15-17.49h-9.1l4.36-14.82a1,1,0,0,1,0-.1l0,.1Z"/></svg>